<?xml version="1.0" encoding="UTF-8" standalone="no"?>
<!-- Created with Inkscape (http://www.inkscape.org/) -->

<svg
   xmlns:dc="http://purl.org/dc/elements/1.1/"
   xmlns:cc="http://creativecommons.org/ns#"
   xmlns:rdf="http://www.w3.org/1999/02/22-rdf-syntax-ns#"
   xmlns:svg="http://www.w3.org/2000/svg"
   xmlns="http://www.w3.org/2000/svg"
   xmlns:sodipodi="http://sodipodi.sourceforge.net/DTD/sodipodi-0.dtd"
   xmlns:inkscape="http://www.inkscape.org/namespaces/inkscape"
   width="1342"
   height="742"
   id="svg2"
   version="1.1"
   inkscape:version="0.48.4 r9939"
   sodipodi:docname="ccti-logo.svg">
  <defs
     id="defs4" />
  <sodipodi:namedview
     id="base"
     pagecolor="#ffffff"
     bordercolor="#666666"
     borderopacity="1.0"
     inkscape:pageopacity="0.0"
     inkscape:pageshadow="2"
     inkscape:zoom="0.35"
     inkscape:cx="471.95762"
     inkscape:cy="129.52323"
     inkscape:document-units="px"
     inkscape:current-layer="layer1"
     showgrid="false"
     fit-margin-top="0"
     fit-margin-left="0"
     fit-margin-right="0"
     fit-margin-bottom="0"
     inkscape:window-width="1600"
     inkscape:window-height="848"
     inkscape:window-x="0"
     inkscape:window-y="0"
     inkscape:window-maximized="1" />
  <metadata
     id="metadata7">
    <rdf:RDF>
      <cc:Work
         rdf:about="">
        <dc:format>image/svg+xml</dc:format>
        <dc:type
           rdf:resource="http://purl.org/dc/dcmitype/StillImage" />
        <dc:title />
      </cc:Work>
    </rdf:RDF>
  </metadata>
  <g
     inkscape:label="Camada 1"
     inkscape:groupmode="layer"
     id="layer1"
     transform="translate(298.95276,-155.18109)">
    <path
       style="fill:#211e1f"
       d="m 7.0777604,163.03397 c -16.90864,0.11149 -33.4483504,0.76884 -41.3437504,1.875 -48.32463,6.77039 -84.46328,21.71183 -115.53125,47.8125 -50.98745,42.83532 -83.87406,116.00678 -98.84375,219.8125 -13.44076,93.20345 -9.64275,174.66147 10.90625,234 34.03071,98.26917 110.60052,156.80475 237.9687504,181.90625 39.3944696,7.76379 89.1659196,13.09446 140.9999996,15.09375 11,0.42427 44.525,0.66982 74.5,0.53125 57.78627,-0.26715 67.02142,-0.86367 105.5,-6.53125 159.72206,-23.52579 353.75655,-94.59086 490.1563,-179.5625 47.176,-29.38891 83.3736,-57.41153 114.9062,-88.90625 34.7015,-34.65982 55.1315,-64.98568 66.0312,-98.09375 5.977,-18.1549 7.83059,-31.65512 7.0938,-51.4375 -2.1989,-59.03582 -28.0503,-102.59386 -80.5312,-135.71875 -56.5755,-35.70921 -152.7119,-57.35951 -280.6563,-63.21875 -12.65,-0.5793 -26.6,-1.31253 -31,-1.625 -4.4,-0.31246 -46.475,-0.978 -93.5,-1.46875 -87.16792,-0.90969 -95.9045,-1.27617 -125.5,-5.5 -37.97656,-5.41997 -62.84666,-10.7419 -166,-35.375 -82.12356,-19.61118 -121.93016,-27.09048 -171.5,-32.28125 -9.47003,-0.99166 -26.74761,-1.42399 -43.6562496,-1.3125 z m -36.5312504,163.375 c 62.11109,-0.0217 124.19577,0.46374 129.1875,1.53125 16.74266,3.58053 27.82775,10.55581 32.875,20.65625 l 3.125,6.25 0,21.84375 0,21.84375 -164.90625,0 -164.9375,0 -0.625,-5.25 c -0.33883,-2.8875 -0.41166,-12.675 -0.1875,-21.75 0.46358,-18.76821 1.72472,-23.06847 8.96875,-30.3125 4.86901,-4.86901 18.00891,-11.2462 27.1875,-13.1875 5.06392,-1.07106 67.20141,-1.60326 129.3125,-1.625 z m 367.625,0.125 c 135.88299,0.0192 130.29507,-0.22248 144.1875,6.375 8.79669,4.17753 14.71834,9.40695 18.21875,16.0625 2.61494,4.97195 2.66377,5.4646 3,27.3125 l 0.34375,22.25 -165.59375,0 -165.59375,0 0,-20.3125 c 0,-25.12331 0.81673,-28.63008 8.34375,-36.15625 6.08048,-6.07978 15.07094,-10.73604 26.09375,-13.53125 7.70781,-1.95458 11.05581,-2.0169 131,-2 z m 187.5625,0 111,0 111,0 0,36.5 0,36.5 -111,0 -111,0 0,-36.5 0,-36.5 z m 242,0 36.5,0 36.5,0 0,36.5 0,36.5 -36.5,0 -36.5,0 0,-36.5 0,-36.5 z m -962,108 36,0 36,0 0,24.9375 c 0,15.18641 0.41471,26.03549 1.0625,27.75 1.67993,4.4463 5.88744,8.14242 11.6875,10.3125 5.24649,1.96298 7.74097,2 125.3125,2 l 119.9375,0 0,31 0,31 -142.7499996,-0.0937 c -151.1871704,-0.10853 -146.8460704,0.002 -159.3750004,-4.8125 -12.46783,-4.79146 -24.30109,-14.9411 -26.6875,-22.90625 -0.82996,-2.77017 -1.1875,-17.94532 -1.1875,-51.5625 l 0,-47.625 z m 367,0 35.9375,0 35.90625,0 0.34375,25.75 c 0.40104,30.63974 0.43121,30.75447 10.75,36 l 6.375,3.25 120.84375,0 120.84375,0 0,31 0,31 -143.25,-0.0937 c -118.22654,-0.0688 -144.23665,-0.32883 -148.9375,-1.46875 -12.54643,-3.04243 -27.10218,-11.05155 -32.1875,-17.71875 -1.37297,-1.80006 -3.41567,-5.29064 -4.53125,-7.75 -1.94597,-4.28996 -2.0414,-6.40803 -2.0625,-52.21875 l -0.0312,-47.75 z m 427,0 36.5,0 36.5,0 0,63.5 0,63.5 -36.5,0 -36.5,0 0,-63.5 0,-63.5 z m 168,0 36.5,0 36.5,0 0,63.5 0,63.5 -36.5,0 -36.5,0 0,-63.5 0,-63.5 z m -637.28125,155.65625 4.9375,0 4.46875,5.5625 -4.71875,0 -2.25,-2.75 -2.1875,2.75 -4.71875,0 4.46875,-5.5625 z m 647.49995,0.3125 2.6563,1.84375 c -0.95,2.55 -2.5,3.40625 -4.25,3.40625 -2.1,0 -3,-1.25 -4.5,-1.25 -0.9,0 -1.5563,0.1875 -2.1563,1.4375 l -2.6562,-1.84375 c 0.95,-2.55 2.5,-3.40625 4.25,-3.40625 2.1,0 3,1.25 4.5,1.25 0.9,0 1.5562,-0.1875 2.1562,-1.4375 z m -935.37495,6.6875 c 5.39999,0 8.1875,3.21251 8.1875,8.8125 l 0,3.40625 -5.1875,0 0,-3.75 c 0,-2.5 -1.09375,-3.46875 -2.84375,-3.46875 -1.75,0 -2.84375,0.96875 -2.84375,3.46875 l 0,18.875 c 0,2.5 1.09375,3.40625 2.84375,3.40625 1.75,0 2.84375,-0.90625 2.84375,-3.40625 l 0,-5 5.1875,0 0,4.65625 c 0,5.59999 -2.78751,8.8125 -8.1875,8.8125 -5.4,0 -8.1875,-3.21251 -8.1875,-8.8125 l 0,-18.1875 c 0,-5.59999 2.7875,-8.8125 8.1875,-8.8125 z m 142.3125,0 c 5.4000004,0 8.3750004,3.21251 8.3750004,8.8125 l 0,18.1875 c 0,5.59999 -2.975,8.8125 -8.3750004,8.8125 -5.39999,0 -8.34375,-3.21251 -8.34375,-8.8125 l 0,-18.1875 c 0,-5.59999 2.94376,-8.8125 8.34375,-8.8125 z m 101.46875,0 c 5.4,0 8.1875,3.21251 8.1875,8.8125 l 0,3.40625 -5.1875,0 0,-3.75 c 0,-2.5 -1.09375,-3.46875 -2.84375,-3.46875 -1.75,0 -2.875,0.96875 -2.875,3.46875 l 0,18.875 c 0,2.5 1.125,3.40625 2.875,3.40625 1.75,0 2.84375,-0.90625 2.84375,-3.40625 l 0,-5 5.1875,0 0,4.65625 c 0,5.59999 -2.7875,8.8125 -8.1875,8.8125 -5.39999,0 -8.21875,-3.21251 -8.21875,-8.8125 l 0,-18.1875 c 0,-5.59999 2.81876,-8.8125 8.21875,-8.8125 z m 104.71875,0 c 5.4,0 8.1875,3.21251 8.1875,8.8125 l 0,3.40625 -5.1875,0 0,-3.75 c 0,-2.5 -1.09375,-3.46875 -2.84375,-3.46875 -1.75,0 -2.875,0.96875 -2.875,3.46875 l 0,18.875 c 0,2.5 1.125,3.40625 2.875,3.40625 1.75,0 2.84375,-0.90625 2.84375,-3.40625 l 0,-5 5.1875,0 0,4.65625 c 0,5.59999 -2.7875,8.8125 -8.1875,8.8125 -5.39999,0 -8.21875,-3.21251 -8.21875,-8.8125 l 0,-18.1875 c 0,-5.59999 2.81876,-8.8125 8.21875,-8.8125 z m 156.71875,0 c 5.39999,0 8.1875,3.21251 8.1875,8.8125 l 0,3.40625 -5.1875,0 0,-3.75 c 0,-2.5 -1.125,-3.46875 -2.875,-3.46875 -1.75,0 -2.84375,0.96875 -2.84375,3.46875 l 0,18.875 c 0,2.5 1.09375,3.40625 2.84375,3.40625 1.75,0 2.875,-0.90625 2.875,-3.40625 l 0,-5 5.1875,0 0,4.65625 c 0,5.59999 -2.78751,8.8125 -8.1875,8.8125 -5.4,0 -8.21875,-3.21251 -8.21875,-8.8125 l 0,-18.1875 c 0,-5.59999 2.81875,-8.8125 8.21875,-8.8125 z m 58.9375,0 c 5.4,0 8.34375,3.21251 8.34375,8.8125 l 0,18.1875 c 0,5.59999 -2.94375,8.8125 -8.34375,8.8125 -5.39999,0 -8.34375,-3.21251 -8.34375,-8.8125 l 0,-18.1875 c 0,-5.59999 2.94376,-8.8125 8.34375,-8.8125 z m 54.90625,0 c 5.4,0 8.34375,3.21251 8.34375,8.8125 l 0,18.1875 c 0,5.59999 -2.94375,8.8125 -8.34375,8.8125 -5.39999,0 -8.34375,-3.21251 -8.34375,-8.8125 l 0,-18.1875 c 0,-5.59999 2.94376,-8.8125 8.34375,-8.8125 z m 28.71875,0 c 5.4,0 8.1875,3.21251 8.1875,8.8125 l 0,3.40625 -5.1875,0 0,-3.75 c 0,-2.5 -1.125,-3.46875 -2.875,-3.46875 -1.75,0 -2.84375,0.96875 -2.84375,3.46875 l 0,18.875 c 0,2.5 1.09375,3.40625 2.84375,3.40625 1.75,0 2.875,-0.90625 2.875,-3.40625 l 0,-6.4375 -2.5,0 0,-5 7.6875,0 0,11.09375 c 0,5.59999 -2.7875,8.8125 -8.1875,8.8125 -5.39999,0 -8.21875,-3.21251 -8.21875,-8.8125 l 0,-18.1875 c 0,-5.59999 2.81876,-8.8125 8.21875,-8.8125 z m 168.8125,0 c 5.39999,0 8.34375,3.21251 8.34375,8.8125 l 0,18.1875 c 0,5.59999 -2.94376,8.8125 -8.34375,8.8125 -5.4,0 -8.34375,-3.21251 -8.34375,-8.8125 l 0,-18.1875 c 0,-5.59999 2.94375,-8.8125 8.34375,-8.8125 z m 85.8438,0 c 5.4001,0 8.2187,3.21251 8.2187,8.8125 l 0,3.40625 -5.2187,0 0,-3.75 c 10e-5,-2.5 -1.0938,-3.46875 -2.8438,-3.46875 -1.75,0 -2.8438,0.96875 -2.8438,3.46875 l 0,18.875 c 0,2.5 1.0938,3.40625 2.8438,3.40625 1.75,0 2.8438,-0.90625 2.8438,-3.40625 l 0,-5 5.2187,0 0,4.65625 c 0,5.19999 -2.475,8.35 -7.125,8.75 l 0,1.59375 c 2.45,0 3.7187,0.625 3.7187,2.375 -10e-5,2.7 -2.1123,3.03125 -5.0624,3.03125 -2.75,0 -4.7813,-0.60625 -4.7813,-2.90625 l 0,-0.5 3.6875,0 0,0.40625 c 0,0.75 0.5439,1 1.0938,1 0.8499,0 1.25,-0.3375 1.25,-1.1875 0,-0.95 -0.5813,-1.3125 -1.7813,-1.3125 l -0.5,0 0,-2.53125 c -4.55,-0.45 -6.9063,-3.56876 -6.9063,-8.71875 l 0,-18.1875 c -10e-5,-5.59999 2.7877,-8.8125 8.1876,-8.8125 z m 57.875,0 c 5.4,0 8.3437,3.21251 8.3437,8.8125 l 0,18.1875 c 0,5.59999 -2.9437,8.8125 -8.3437,8.8125 -5.3999,0 -8.3438,-3.21251 -8.3438,-8.8125 l 0,-18.1875 c 0,-5.59999 2.9438,-8.8125 8.3438,-8.8125 z m -939.68755,0.40625 15,0 0,5 -9.5,0 0,9.75 7.5625,0 0,5 -7.5625,0 0,10.25 9.5,0 0,5 -15,0 0,-35 z m 27.34375,0 6.90625,0 5.65625,20.9375 0,-20.9375 4.90625,0 0,35 -5.65625,0 -6.84375,-25.34375 0,25.34375 -4.96875,0 0,-35 z m 28.875,0 17,0 0,5 -5.75,0 0,30 -5.5,0 0,-30 -5.75,0 0,-5 z m 28.4375,0 8.28125,0 c 5.69999,0 8.15625,2.66251 8.15625,8.0625 l 0,2.75 c 0,3.6 -1.14375,5.94375 -3.59375,7.09375 2.75,1.15 3.65625,3.7875 3.65625,7.4375 l 0,5.40625 c 0,1.7 0.04375,2.95 0.59375,4.25 l -5.59375,0 c -0.3,-0.9 -0.5,-1.4625 -0.5,-4.3125 l 0,-5.5 c 0,-3.25 -1.125,-4.4375 -3.625,-4.4375 l -1.875,0 0,14.25 -5.5,0 0,-35 z m 65.9375,0 8.71875,0 c 5.5,0 8.1875,3.05626 8.1875,8.65625 l 0,17.6875 c 0,5.59999 -2.68751,8.65625 -8.1875,8.65625 l -8.71875,0 0,-35 z m 29.46875,0 15,0 0,5 -9.5,0 0,9.75 7.53125,0 0,5 -7.53125,0 0,10.25 9.5,0 0,5 -15,0 0,-35 z m 63.71875,0 5.5,0 0,35 -5.5,0 0,-35 z m 18.5,0 15,0 0,5 -9.5,0 0,9.75 7.5625,0 0,5 -7.5625,0 0,10.25 9.5,0 0,5 -15,0 0,-35 z m 27.375,0 6.875,0 5.65625,20.9375 0,-20.9375 4.90625,0 0,35 -5.65625,0 -6.84375,-25.34375 0,25.34375 -4.9375,0 0,-35 z m 58.84375,0 5.5,0 0,35 -5.5,0 0,-35 z m 22.65625,0 8.0625,0 5.59375,35 -5.5625,0 -0.9375,-6.34375 -6.75,0 -0.96875,6.34375 -5.03125,0 5.59375,-35 z m 49.875,0 17,0 0,5 -5.75,0 0,30 -5.5,0 0,-30 -5.75,0 0,-5 z m 28.40625,0 15,0 0,5 -9.5,0 0,9.75 7.53125,0 0,5 -7.53125,0 0,10.25 9.5,0 0,5 -15,0 0,-35 z m 55.71875,0 6.90625,0 5.65625,20.9375 0,-20.9375 4.90625,0 0,35 -5.65625,0 -6.84375,-25.34375 0,25.34375 -4.96875,0 0,-35 z m 59.34375,0 5.5,0 0,30 9.0625,0 0,5 -14.5625,0 0,-35 z m 83.46875,0 5.5,0 0,35 -5.5,0 0,-35 z m 22.65625,0 8.0625,0 5.59375,35 -5.5625,0 -0.9375,-6.34375 -6.75,0 -0.9375,6.34375 -5.0625,0 5.59375,-35 z m 33.15625,0 15,0 0,5 -9.5,0 0,9.75 7.53125,0 0,5 -7.53125,0 0,10.25 9.5,0 0,5 -15,0 0,-35 z m 35.34375,0 5.5,0 0,35 -5.5,0 0,-35 z m 18.46875,0 6.90625,0 5.625,20.9375 0,-20.9375 4.90625,0 0,35 -5.65625,0 -6.84375,-25.34375 0,25.34375 -4.9375,0 0,-35 z m 57.78125,0 5.5625,0 4.1875,28.5625 4.21875,-28.5625 5.03125,0 -5.40625,35 -8.1875,0 -5.40625,-35 z m 33.49995,0 8.0313,0 5.625,35 -5.5625,0 -0.9375,-6.34375 -6.75,0 -0.9687,6.34375 -5.0313,0 5.5937,-35 z m 57.7188,0 8.0625,0 5.5937,35 -5.5624,0 -0.9376,-6.34375 -6.75,0 -0.9687,6.34375 -5.0313,0 5.5938,-35 z m -784.90625,4.59375 c -1.75,0 -2.84375,0.96875 -2.84375,3.46875 l 0,18.875 c 0,2.5 1.09375,3.46875 2.84375,3.46875 1.75,0 2.875,-0.96875 2.875,-3.46875 l 0,-18.875 c 0,-2.5 -1.125,-3.46875 -2.875,-3.46875 z m 421.84375,0 c -1.75,0 -2.84375,0.96875 -2.84375,3.46875 l 0,18.875 c 0,2.5 1.09375,3.46875 2.84375,3.46875 1.75,0 2.84375,-0.96875 2.84375,-3.46875 l 0,-18.875 c 0,-2.5 -1.09375,-3.46875 -2.84375,-3.46875 z m 54.90625,0 c -1.74999,0 -2.84375,0.96875 -2.84375,3.46875 l 0,18.875 c 0,2.5 1.09376,3.46875 2.84375,3.46875 1.75,0 2.84375,-0.96875 2.84375,-3.46875 l 0,-18.875 c 0,-2.5 -1.09375,-3.46875 -2.84375,-3.46875 z m 197.53125,0 c -1.75,0 -2.84375,0.96875 -2.84375,3.46875 l 0,18.875 c 0,2.5 1.09375,3.46875 2.84375,3.46875 1.74999,0 2.84375,-0.96875 2.84375,-3.46875 l 0,-18.875 c 0,-2.5 -1.09376,-3.46875 -2.84375,-3.46875 z m 143.7188,0 c -1.7499,0 -2.8438,0.96875 -2.8438,3.46875 l 0,18.875 c 0,2.5 1.0938,3.46875 2.8438,3.46875 1.75,0 2.8437,-0.96875 2.8437,-3.46875 l 0,-18.875 c 0,-2.5 -1.0937,-3.46875 -2.8437,-3.46875 z m -849.5313,0.40625 0,10.75 2.125,0 c 2.05,0 3.3125,-0.8875 3.3125,-3.6875 l 0,-3.46875 c 0,-2.5 -0.8625,-3.59375 -2.8125,-3.59375 l -2.625,0 z m 65.9375,0 0,25 3.125,0 c 1.75,0 2.78125,-0.90625 2.78125,-3.40625 l 0,-18.1875 c 0,-2.5 -1.03125,-3.40625 -2.78125,-3.40625 l -3.125,0 z m 218.8125,1.1875 -2.65625,17.71875 5.3125,0 -2.65625,-17.71875 z m 299.46875,0 -2.65625,17.71875 5.3125,0 -2.65625,-17.71875 z m 178.24995,0 -2.6562,17.71875 5.3125,0 -2.6563,-17.71875 z m 57.7188,0 -2.6562,17.71875 5.3124,0 -2.6562,-17.71875 z m -514,23.5 5.3125,0 0,4.75 -2.40625,5.5625 -2.25,0 1.46875,-5 -2.125,0 0,-5.3125 z M 1000.109,886.87772 c -0.15159,-0.023 -0.25119,0.33441 -0.28129,1.0625 -0.0434,1.05416 0.19899,1.64479 0.53129,1.3125 0.3324,-0.33229 0.3514,-1.18438 0.062,-1.90625 -0.1197,-0.29915 -0.2215,-0.45498 -0.3125,-0.46875 z"
       id="path2998"
       inkscape:connector-curvature="0" />
  </g>
  <g
     inkscape:groupmode="layer"
     id="layer2"
     inkscape:label="hidden"
     sodipodi:insensitive="true"
     style="display:none">
    <g
       style="font-size:40px;font-style:normal;font-weight:normal;line-height:125%;letter-spacing:0px;word-spacing:0px;fill:#ff0000;fill-opacity:1;stroke:none;font-family:Sans"
       id="text3015"
       transform="translate(268.64818,-162.25216)">
      <path
         inkscape:connector-curvature="0"
         d="m -124.10736,626.60094 0,5 c 0,2.5 -1.1,3.4 -2.85,3.4 -1.75,0 -2.85,-0.9 -2.85,-3.4 l 0,-18.9 c 0,-2.5 1.1,-3.45 2.85,-3.45 1.75,0 2.85,0.95 2.85,3.45 l 0,3.75 5.2,0 0,-3.4 c 0,-5.59999 -2.80001,-8.8 -8.2,-8.8 -5.4,0 -8.2,3.20001 -8.2,8.8 l 0,18.2 c 0,5.59999 2.8,8.8 8.2,8.8 5.39999,0 8.2,-3.20001 8.2,-8.8 l 0,-4.65 -5.2,0"
         style="font-size:50px;font-variant:normal;font-weight:bold;font-stretch:normal;letter-spacing:9.03999996px;word-spacing:-8.81000042px;font-family:Bebas Neue;-inkscape-font-specification:Bebas Neue Bold"
         id="path2991" />
      <path
         inkscape:connector-curvature="0"
         d="m -100.98142,609.65094 9.499998,0 0,-5 -14.999998,0 0,35 14.999998,0 0,-5 -9.499998,0 0,-10.25 7.549998,0 0,-5 -7.549998,0 0,-9.75"
         style="font-size:50px;font-variant:normal;font-weight:bold;font-stretch:normal;letter-spacing:9.03999996px;word-spacing:-8.81000042px;font-family:Bebas Neue;-inkscape-font-specification:Bebas Neue Bold"
         id="path2993" />
      <path
         inkscape:connector-curvature="0"
         d="m -67.332047,639.65094 5.65,0 0,-35 -4.9,0 0,20.95 -5.65,-20.95 -6.9,0 0,35 4.95,0 0,-25.35 6.85,25.35"
         style="font-size:50px;font-variant:normal;font-weight:bold;font-stretch:normal;letter-spacing:9.03999996px;word-spacing:-8.81000042px;font-family:Bebas Neue;-inkscape-font-specification:Bebas Neue Bold"
         id="path2995" />
      <path
         inkscape:connector-curvature="0"
         d="m -50.255327,609.65094 5.75,0 0,30 5.5,0 0,-30 5.75,0 0,-5 -17,0 0,5"
         style="font-size:50px;font-variant:normal;font-weight:bold;font-stretch:normal;letter-spacing:9.03999996px;word-spacing:-8.81000042px;font-family:Bebas Neue;-inkscape-font-specification:Bebas Neue Bold"
         id="path2997" />
      <path
         inkscape:connector-curvature="0"
         d="m -4.7418884,639.65094 c -0.5499995,-1.3 -0.6,-2.55 -0.6,-4.25 l 0,-5.4 c 0,-3.65 -0.9000028,-6.3 -3.65,-7.45 2.4499975,-1.15 3.6,-3.5 3.6,-7.1 l 0,-2.75 c 0,-5.39999 -2.4500057,-8.05 -8.1499996,-8.05 l -8.3,0 0,35 5.5,0 0,-14.25 1.9,0 c 2.499997,0 3.6,1.2 3.6,4.45 l 0,5.5 c 0,2.85 0.2,3.4 0.5,4.3 l 5.5999996,0 m -8.9499996,-30 c 1.949998,0 2.8,1.1 2.8,3.6 l 0,3.45 c 0,2.8 -1.250002,3.7 -3.3,3.7 l -2.15,0 0,-10.75 2.65,0"
         style="font-size:50px;font-variant:normal;font-weight:bold;font-stretch:normal;letter-spacing:9.03999996px;word-spacing:-8.81000042px;font-family:Bebas Neue;-inkscape-font-specification:Bebas Neue Bold"
         id="path2999" />
      <path
         inkscape:connector-curvature="0"
         d="m 12.365292,612.70094 c 0,-2.5 1.100002,-3.45 2.85,-3.45 1.749999,0 2.85,0.95 2.85,3.45 l 0,18.9 c 0,2.5 -1.100001,3.45 -2.85,3.45 -1.749998,0 -2.85,-0.95 -2.85,-3.45 l 0,-18.9 m -5.4999996,18.55 c 0,5.59999 2.9500054,8.8 8.3499996,8.8 5.399995,0 8.35,-3.20001 8.35,-8.8 l 0,-18.2 c 0,-5.59999 -2.950005,-8.8 -8.35,-8.8 -5.3999942,0 -8.3499996,3.20001 -8.3499996,8.8 l 0,18.2"
         style="font-size:50px;font-variant:normal;font-weight:bold;font-stretch:normal;letter-spacing:9.03999996px;word-spacing:-8.81000042px;font-family:Bebas Neue;-inkscape-font-specification:Bebas Neue Bold"
         id="path3001" />
      <path
         inkscape:connector-curvature="0"
         d="m 44.124359,639.65094 8.7,0 c 5.499995,0 8.2,-3.05001 8.2,-8.65 l 0,-17.7 c 0,-5.59999 -2.700005,-8.65 -8.2,-8.65 l -8.7,0 0,35 m 8.6,-30 c 1.749998,0 2.8,0.9 2.8,3.4 l 0,18.2 c 0,2.5 -1.050002,3.4 -2.8,3.4 l -3.1,0 0,-25 3.1,0"
         style="font-size:50px;font-variant:normal;font-weight:bold;font-stretch:normal;letter-spacing:9.03999996px;word-spacing:-8.81000042px;font-family:Bebas Neue;-inkscape-font-specification:Bebas Neue Bold"
         id="path3003" />
      <path
         inkscape:connector-curvature="0"
         d="m 79.074509,609.65094 9.5,0 0,-5 -15,0 0,35 15,0 0,-5 -9.5,0 0,-10.25 7.55,0 0,-5 -7.55,0 0,-9.75"
         style="font-size:50px;font-variant:normal;font-weight:bold;font-stretch:normal;letter-spacing:9.03999996px;word-spacing:-8.81000042px;font-family:Bebas Neue;-inkscape-font-specification:Bebas Neue Bold"
         id="path3005" />
      <path
         inkscape:connector-curvature="0"
         d="m 119.66873,626.60094 0,5 c 0,2.5 -1.1,3.4 -2.85,3.4 -1.75,0 -2.85,-0.9 -2.85,-3.4 l 0,-18.9 c 0,-2.5 1.1,-3.45 2.85,-3.45 1.75,0 2.85,0.95 2.85,3.45 l 0,3.75 5.2,0 0,-3.4 c 0,-5.59999 -2.8,-8.8 -8.2,-8.8 -5.39999,0 -8.2,3.20001 -8.2,8.8 l 0,18.2 c 0,5.59999 2.80001,8.8 8.2,8.8 5.4,0 8.2,-3.20001 8.2,-8.8 l 0,-4.65 -5.2,0"
         style="font-size:50px;font-variant:normal;font-weight:bold;font-stretch:normal;letter-spacing:9.03999996px;word-spacing:-8.81000042px;font-family:Bebas Neue;-inkscape-font-specification:Bebas Neue Bold"
         id="path3007" />
      <path
         inkscape:connector-curvature="0"
         d="m 137.29468,639.65094 5.5,0 0,-35 -5.5,0 0,35"
         style="font-size:50px;font-variant:normal;font-weight:bold;font-stretch:normal;letter-spacing:9.03999996px;word-spacing:-8.81000042px;font-family:Bebas Neue;-inkscape-font-specification:Bebas Neue Bold"
         id="path3009" />
      <path
         inkscape:connector-curvature="0"
         d="m 161.30731,609.65094 9.5,0 0,-5 -15,0 0,35 15,0 0,-5 -9.5,0 0,-10.25 7.55,0 0,-5 -7.55,0 0,-9.75 m -0.3,-6.85 2.2,-2.75 2.25,2.75 4.7,0 -4.45,-5.55 -4.95,0 -4.45,5.55 4.7,0"
         style="font-size:50px;font-variant:normal;font-weight:bold;font-stretch:normal;letter-spacing:9.03999996px;word-spacing:-8.81000042px;font-family:Bebas Neue;-inkscape-font-specification:Bebas Neue Bold"
         id="path3011" />
      <path
         inkscape:connector-curvature="0"
         d="m 194.9567,639.65094 5.65,0 0,-35 -4.9,0 0,20.95 -5.65,-20.95 -6.9,0 0,35 4.95,0 0,-25.35 6.85,25.35"
         style="font-size:50px;font-variant:normal;font-weight:bold;font-stretch:normal;letter-spacing:9.03999996px;word-spacing:-8.81000042px;font-family:Bebas Neue;-inkscape-font-specification:Bebas Neue Bold"
         id="path3013" />
      <path
         inkscape:connector-curvature="0"
         d="m 224.38342,626.60094 0,5 c 0,2.5 -1.1,3.4 -2.85,3.4 -1.75,0 -2.85,-0.9 -2.85,-3.4 l 0,-18.9 c 0,-2.5 1.1,-3.45 2.85,-3.45 1.75,0 2.85,0.95 2.85,3.45 l 0,3.75 5.2,0 0,-3.4 c 0,-5.59999 -2.8,-8.8 -8.2,-8.8 -5.39999,0 -8.2,3.20001 -8.2,8.8 l 0,18.2 c 0,5.59999 2.80001,8.8 8.2,8.8 5.4,0 8.2,-3.20001 8.2,-8.8 l 0,-4.65 -5.2,0"
         style="font-size:50px;font-variant:normal;font-weight:bold;font-stretch:normal;letter-spacing:9.03999996px;word-spacing:-8.81000042px;font-family:Bebas Neue;-inkscape-font-specification:Bebas Neue Bold"
         id="path3015" />
      <path
         inkscape:connector-curvature="0"
         d="m 242.00937,639.65094 5.5,0 0,-35 -5.5,0 0,35"
         style="font-size:50px;font-variant:normal;font-weight:bold;font-stretch:normal;letter-spacing:9.03999996px;word-spacing:-8.81000042px;font-family:Bebas Neue;-inkscape-font-specification:Bebas Neue Bold"
         id="path3017" />
      <path
         inkscape:connector-curvature="0"
         d="m 272.722,604.65094 -8.05,0 -5.6,35 5.05,0 0.95,-6.35 6.75,0 0.95,6.35 5.55,0 -5.6,-35 m -4.3,6.2 2.65,17.7 -5.3,0 2.65,-17.7"
         style="font-size:50px;font-variant:normal;font-weight:bold;font-stretch:normal;letter-spacing:9.03999996px;word-spacing:-8.81000042px;font-family:Bebas Neue;-inkscape-font-specification:Bebas Neue Bold"
         id="path3019" />
      <path
         inkscape:connector-curvature="0"
         d="m 291.97451,639.65094 -1.45,5 2.25,0 2.4,-5.55 0,-4.75 -5.3,0 0,5.3 2.1,0"
         style="font-size:50px;font-variant:normal;font-weight:bold;font-stretch:normal;letter-spacing:9.03999996px;word-spacing:-8.81000042px;font-family:Bebas Neue;-inkscape-font-specification:Bebas Neue Bold"
         id="path3021" />
      <path
         inkscape:connector-curvature="0"
         d="m 314.53669,609.65094 5.75,0 0,30 5.5,0 0,-30 5.75,0 0,-5 -17,0 0,5"
         style="font-size:50px;font-variant:normal;font-weight:bold;font-stretch:normal;letter-spacing:9.03999996px;word-spacing:-8.81000042px;font-family:Bebas Neue;-inkscape-font-specification:Bebas Neue Bold"
         id="path3023" />
      <path
         inkscape:connector-curvature="0"
         d="m 348.45013,609.65094 9.5,0 0,-5 -15,0 0,35 15,0 0,-5 -9.5,0 0,-10.25 7.55,0 0,-5 -7.55,0 0,-9.75"
         style="font-size:50px;font-variant:normal;font-weight:bold;font-stretch:normal;letter-spacing:9.03999996px;word-spacing:-8.81000042px;font-family:Bebas Neue;-inkscape-font-specification:Bebas Neue Bold"
         id="path3025" />
      <path
         inkscape:connector-curvature="0"
         d="m 381.09952,626.60094 0,5 c 0,2.5 -1.1,3.4 -2.85,3.4 -1.75,0 -2.85,-0.9 -2.85,-3.4 l 0,-18.9 c 0,-2.5 1.1,-3.45 2.85,-3.45 1.75,0 2.85,0.95 2.85,3.45 l 0,3.75 5.2,0 0,-3.4 c 0,-5.59999 -2.80001,-8.8 -8.2,-8.8 -5.4,0 -8.2,3.20001 -8.2,8.8 l 0,18.2 c 0,5.59999 2.8,8.8 8.2,8.8 5.39999,0 8.2,-3.20001 8.2,-8.8 l 0,-4.65 -5.2,0"
         style="font-size:50px;font-variant:normal;font-weight:bold;font-stretch:normal;letter-spacing:9.03999996px;word-spacing:-8.81000042px;font-family:Bebas Neue;-inkscape-font-specification:Bebas Neue Bold"
         id="path3027" />
      <path
         inkscape:connector-curvature="0"
         d="m 410.47546,639.65094 5.65,0 0,-35 -4.9,0 0,20.95 -5.65,-20.95 -6.9,0 0,35 4.95,0 0,-25.35 6.85,25.35"
         style="font-size:50px;font-variant:normal;font-weight:bold;font-stretch:normal;letter-spacing:9.03999996px;word-spacing:-8.81000042px;font-family:Bebas Neue;-inkscape-font-specification:Bebas Neue Bold"
         id="path3029" />
      <path
         inkscape:connector-curvature="0"
         d="m 434.20216,612.70094 c 0,-2.5 1.1,-3.45 2.85,-3.45 1.75,0 2.85,0.95 2.85,3.45 l 0,18.9 c 0,2.5 -1.1,3.45 -2.85,3.45 -1.75,0 -2.85,-0.95 -2.85,-3.45 l 0,-18.9 m -5.5,18.55 c 0,5.59999 2.95001,8.8 8.35,8.8 5.4,0 8.35,-3.20001 8.35,-8.8 l 0,-18.2 c 0,-5.59999 -2.95,-8.8 -8.35,-8.8 -5.39999,0 -8.35,3.20001 -8.35,8.8 l 0,18.2"
         style="font-size:50px;font-variant:normal;font-weight:bold;font-stretch:normal;letter-spacing:9.03999996px;word-spacing:-8.81000042px;font-family:Bebas Neue;-inkscape-font-specification:Bebas Neue Bold"
         id="path3031" />
      <path
         inkscape:connector-curvature="0"
         d="m 458.01636,639.65094 14.55,0 0,-5 -9.05,0 0,-30 -5.5,0 0,35"
         style="font-size:50px;font-variant:normal;font-weight:bold;font-stretch:normal;letter-spacing:9.03999996px;word-spacing:-8.81000042px;font-family:Bebas Neue;-inkscape-font-specification:Bebas Neue Bold"
         id="path3033" />
      <path
         inkscape:connector-curvature="0"
         d="m 489.09858,612.70094 c 0,-2.5 1.10001,-3.45 2.85,-3.45 1.75,0 2.85,0.95 2.85,3.45 l 0,18.9 c 0,2.5 -1.1,3.45 -2.85,3.45 -1.74999,0 -2.85,-0.95 -2.85,-3.45 l 0,-18.9 m -5.5,18.55 c 0,5.59999 2.95001,8.8 8.35,8.8 5.4,0 8.35,-3.20001 8.35,-8.8 l 0,-18.2 c 0,-5.59999 -2.95,-8.8 -8.35,-8.8 -5.39999,0 -8.35,3.20001 -8.35,8.8 l 0,18.2"
         style="font-size:50px;font-variant:normal;font-weight:bold;font-stretch:normal;letter-spacing:9.03999996px;word-spacing:-8.81000042px;font-family:Bebas Neue;-inkscape-font-specification:Bebas Neue Bold"
         id="path3035" />
      <path
         inkscape:connector-curvature="0"
         d="m 521.16278,625.15094 2.5,0 0,6.45 c 0,2.5 -1.1,3.4 -2.85,3.4 -1.75,0 -2.85,-0.9 -2.85,-3.4 l 0,-18.9 c 0,-2.5 1.1,-3.45 2.85,-3.45 1.75,0 2.85,0.95 2.85,3.45 l 0,3.75 5.2,0 0,-3.4 c 0,-5.59999 -2.8,-8.8 -8.2,-8.8 -5.39999,0 -8.2,3.20001 -8.2,8.8 l 0,18.2 c 0,5.59999 2.80001,8.8 8.2,8.8 5.4,0 8.2,-3.20001 8.2,-8.8 l 0,-11.1 -7.7,0 0,5"
         style="font-size:50px;font-variant:normal;font-weight:bold;font-stretch:normal;letter-spacing:9.03999996px;word-spacing:-8.81000042px;font-family:Bebas Neue;-inkscape-font-specification:Bebas Neue Bold"
         id="path3037" />
      <path
         inkscape:connector-curvature="0"
         d="m 541.48407,639.65094 5.5,0 0,-35 -5.5,0 0,35"
         style="font-size:50px;font-variant:normal;font-weight:bold;font-stretch:normal;letter-spacing:9.03999996px;word-spacing:-8.81000042px;font-family:Bebas Neue;-inkscape-font-specification:Bebas Neue Bold"
         id="path3039" />
      <path
         inkscape:connector-curvature="0"
         d="m 572.1967,604.65094 -8.05,0 -5.6,35 5.05,0 0.95,-6.35 6.75,0 0.95,6.35 5.55,0 -5.6,-35 m -4.3,6.2 2.65,17.7 -5.3,0 2.65,-17.7"
         style="font-size:50px;font-variant:normal;font-weight:bold;font-stretch:normal;letter-spacing:9.03999996px;word-spacing:-8.81000042px;font-family:Bebas Neue;-inkscape-font-specification:Bebas Neue Bold"
         id="path3041" />
      <path
         inkscape:connector-curvature="0"
         d="m 602.79407,609.65094 9.5,0 0,-5 -15,0 0,35 15,0 0,-5 -9.5,0 0,-10.25 7.55,0 0,-5 -7.55,0 0,-9.75"
         style="font-size:50px;font-variant:normal;font-weight:bold;font-stretch:normal;letter-spacing:9.03999996px;word-spacing:-8.81000042px;font-family:Bebas Neue;-inkscape-font-specification:Bebas Neue Bold"
         id="path3043" />
      <path
         inkscape:connector-curvature="0"
         d="m 632.63824,639.65094 5.5,0 0,-35 -5.5,0 0,35"
         style="font-size:50px;font-variant:normal;font-weight:bold;font-stretch:normal;letter-spacing:9.03999996px;word-spacing:-8.81000042px;font-family:Bebas Neue;-inkscape-font-specification:Bebas Neue Bold"
         id="path3045" />
      <path
         inkscape:connector-curvature="0"
         d="m 662.90094,639.65094 5.65,0 0,-35 -4.9,0 0,20.95 -5.65,-20.95 -6.9,0 0,35 4.95,0 0,-25.35 6.85,25.35"
         style="font-size:50px;font-variant:normal;font-weight:bold;font-stretch:normal;letter-spacing:9.03999996px;word-spacing:-8.81000042px;font-family:Bebas Neue;-inkscape-font-specification:Bebas Neue Bold"
         id="path3047" />
      <path
         inkscape:connector-curvature="0"
         d="m 686.62764,612.70094 c 0,-2.5 1.1,-3.45 2.85,-3.45 1.74999,0 2.85,0.95 2.85,3.45 l 0,18.9 c 0,2.5 -1.10001,3.45 -2.85,3.45 -1.75,0 -2.85,-0.95 -2.85,-3.45 l 0,-18.9 m -5.5,18.55 c 0,5.59999 2.95,8.8 8.35,8.8 5.39999,0 8.35,-3.20001 8.35,-8.8 l 0,-18.2 c 0,-5.59999 -2.95001,-8.8 -8.35,-8.8 -5.4,0 -8.35,3.20001 -8.35,8.8 l 0,18.2"
         style="font-size:50px;font-variant:normal;font-weight:bold;font-stretch:normal;letter-spacing:9.03999996px;word-spacing:-8.81000042px;font-family:Bebas Neue;-inkscape-font-specification:Bebas Neue Bold"
         id="path3049" />
      <path
         inkscape:connector-curvature="0"
         d="m 714.44418,604.65094 -5.55,0 5.4,35 8.2,0 5.4,-35 -5.05,0 -4.2,28.55 -4.2,-28.55"
         style="font-size:50px;font-variant:normal;font-weight:bold;font-stretch:normal;letter-spacing:9.03999996px;word-spacing:-8.81000042px;font-family:Bebas Neue;-inkscape-font-specification:Bebas Neue Bold"
         id="path3051" />
      <path
         inkscape:connector-curvature="0"
         d="m 750.43187,604.65094 -8.05,0 -5.6,35 5.05,0 0.95,-6.35 6.75,0 0.95,6.35 5.55,0 -5.6,-35 m -4.3,6.2 2.65,17.7 -5.3,0 2.65,-17.7"
         style="font-size:50px;font-variant:normal;font-weight:bold;font-stretch:normal;letter-spacing:9.03999996px;word-spacing:-8.81000042px;font-family:Bebas Neue;-inkscape-font-specification:Bebas Neue Bold"
         id="path3053" />
      <path
         inkscape:connector-curvature="0"
         d="m 778.33435,626.60094 0,5 c 0,2.5 -1.1,3.4 -2.85,3.4 -1.75,0 -2.85,-0.9 -2.85,-3.4 l 0,-18.9 c 0,-2.5 1.1,-3.45 2.85,-3.45 1.75,0 2.85,0.95 2.85,3.45 l 0,3.75 5.2,0 0,-3.4 c 0,-5.59999 -2.8,-8.8 -8.2,-8.8 -5.39999,0 -8.2,3.20001 -8.2,8.8 l 0,18.2 c 0,5.14999 2.35001,8.25 6.9,8.7 l 0,2.55 0.5,0 c 1.2,0 1.8,0.35 1.8,1.3 0,0.85 -0.4,1.2 -1.25,1.2 -0.55,0 -1.1,-0.25 -1.1,-1 l 0,-0.4 -3.7,0 0,0.5 c 0,2.3 2.05,2.9 4.8,2.9 2.95,0 5.05,-0.35 5.05,-3.05 0,-1.75 -1.25,-2.35 -3.7,-2.35 l 0,-1.6 c 4.65,-0.4 7.1,-3.55001 7.1,-8.75 l 0,-4.65 -5.2,0"
         style="font-size:50px;font-variant:normal;font-weight:bold;font-stretch:normal;letter-spacing:9.03999996px;word-spacing:-8.81000042px;font-family:Bebas Neue;-inkscape-font-specification:Bebas Neue Bold"
         id="path3055" />
      <path
         inkscape:connector-curvature="0"
         d="m 808.16027,604.65094 -8.05,0 -5.6,35 5.05,0 0.95,-6.35 6.75,0 0.95,6.35 5.55,0 -5.6,-35 m -4.3,6.2 2.65,17.7 -5.3,0 2.65,-17.7 m 2.25,-11.85 c -1.5,0 -2.40001,-1.25 -4.5,-1.25 -1.75,0 -3.3,0.85 -4.25,3.4 l 2.65,1.85 c 0.6,-1.25 1.25,-1.45 2.15,-1.45 1.49999,0 2.4,1.25 4.5,1.25 1.74999,0 3.3,-0.85 4.25,-3.4 l -2.65,-1.85 c -0.6,1.25 -1.25,1.45 -2.15,1.45"
         style="font-size:50px;font-variant:normal;font-weight:bold;font-stretch:normal;letter-spacing:9.03999996px;word-spacing:-8.81000042px;font-family:Bebas Neue;-inkscape-font-specification:Bebas Neue Bold"
         id="path3057" />
      <path
         inkscape:connector-curvature="0"
         d="m 830.36281,612.70094 c 0,-2.5 1.1,-3.45 2.85,-3.45 1.74999,0 2.85,0.95 2.85,3.45 l 0,18.9 c 0,2.5 -1.10001,3.45 -2.85,3.45 -1.75,0 -2.85,-0.95 -2.85,-3.45 l 0,-18.9 m -5.5,18.55 c 0,5.59999 2.95,8.8 8.35,8.8 5.39999,0 8.35,-3.20001 8.35,-8.8 l 0,-18.2 c 0,-5.59999 -2.95001,-8.8 -8.35,-8.8 -5.4,0 -8.35,3.20001 -8.35,8.8 l 0,18.2"
         style="font-size:50px;font-variant:normal;font-weight:bold;font-stretch:normal;letter-spacing:9.03999996px;word-spacing:-8.81000042px;font-family:Bebas Neue;-inkscape-font-specification:Bebas Neue Bold"
         id="path3059" />
    </g>
  </g>
</svg>
